# xmcd
#
# Track frame offsets:
# 150
# 12762
# 24837
# 46477
# 59247
# 71907
# 83477
# 95775
# 108535
# 121447
# 134850
# 146435
# 159287
# 169555
# 181530
#
# Disc length: 2594 seconds
#
#
# Revision: 0
# Processed by: cddbd v1.5.2PL0 Copyright (c) Steve Scherf et al.
# Submitted via: FreeRIP 2.95 
#
DISCID=cb0a200f
DTITLE=Living The Blues  1945-1953 Jumpin' and Jivin' CD1
DYEAR=1900
DGENRE=Blues
TTITLE0=Louis Jordan  Reet  Petite and Gone
TTITLE1=Wild Bill Moore  We're Gonna Rock We're Gonna Roll
TTITLE2=Joe Liggins  Rhytm In The Barnyard
TTITLE3=Wyonie Harris and Big Joe Turner  Battle Of The Blues PT.1
TTITLE4=Tiny Bradshaw  Gravy Train
TTITLE5=Big Joe Turner  Low Down Dog
TTITLE6=Slim Gaillard  Harlem Hunch
TTITLE7=Clarence "Gatemouth" Brown Boogie Rambler
TTITLE8=Julia Lee  Come On Over To My House
TTITLE9=Hal Singer  Cornbread
TTITLE10=Pee Wee Crayton  Pappy's Blues
TTITLE11=Buddy Johnson  Walk 'Em
TTITLE12=Duke Henerson  Country Girl
TTITLE13=Todd Rhodes  Page Boy Shuffle
TTITLE14=Walter Brown  Nasty Attitude
EXTD=
EXTT0=
EXTT1=
EXTT2=
EXTT3=
EXTT4=
EXTT5=
EXTT6=
EXTT7=
EXTT8=
EXTT9=
EXTT10=
EXTT11=
EXTT12=
EXTT13=
EXTT14=
PLAYORDER=
